STARTFONT 2.1
FONT -FontForge-cubeOne-Medium-R-Normal--24-240-75-75-P-174-ISO10646-1
SIZE 24 75 75
FONTBOUNDINGBOX 17 17 0 0
COMMENT "Generated by fontforge, http://fontforge.sourceforge.net"
COMMENT "iZO"
STARTPROPERTIES 40
FOUNDRY "FontForge"
FAMILY_NAME "cubeOne"
WEIGHT_NAME "Medium"
SLANT "R"
SETWIDTH_NAME "Normal"
ADD_STYLE_NAME ""
PIXEL_SIZE 24
POINT_SIZE 240
RESOLUTION_X 75
RESOLUTION_Y 75
SPACING "P"
AVERAGE_WIDTH 174
CHARSET_REGISTRY "ISO10646"
CHARSET_ENCODING "1"
FONTNAME_REGISTRY ""
CHARSET_COLLECTIONS "ISO10646-1"
FONT_NAME "cubeOne"
FACE_NAME "cubeOne"
COPYRIGHT "iZO"
FONT_VERSION "001.000"
FONT_ASCENT 18
FONT_DESCENT 6
UNDERLINE_POSITION -4
UNDERLINE_THICKNESS 2
X_HEIGHT 16
CAP_HEIGHT 16
RAW_ASCENT 750
RAW_DESCENT 250
NORM_SPACE 8
RELATIVE_WEIGHT 50
RELATIVE_SETWIDTH 50
SUPERSCRIPT_X 0
SUPERSCRIPT_Y 11
SUPERSCRIPT_SIZE 16
SUBSCRIPT_X 0
SUBSCRIPT_Y 3
SUBSCRIPT_SIZE 16
FIGURE_WIDTH 18
AVG_LOWERCASE_WIDTH 180
AVG_UPPERCASE_WIDTH 180
ENDPROPERTIES
CHARS 101
STARTCHAR space
ENCODING 32
SWIDTH 312 0
DWIDTH 8 0
BBX 1 1 0 0
BITMAP
00
ENDCHAR
STARTCHAR exclam
ENCODING 33
SWIDTH 750 0
DWIDTH 18 0
BBX 17 17 0 0
BITMAP
FFFF80
FFFF80
FFFF80
FFFF80
FFFF80
FF7F80
FF7F80
FF7F80
FF7F80
FFFF80
FFFF80
FF7F80
FFFF80
FFFF80
FFFF80
FFFF80
FFFF80
ENDCHAR
STARTCHAR quotedbl
ENCODING 34
SWIDTH 750 0
DWIDTH 18 0
BBX 17 17 0 0
BITMAP
FFFF80
FFFF80
FFFF80
FFFF80
FFFF80
FDBF80
FDBF80
FDBF80
FDBF80
FFFF80
FFFF80
FFFF80
FFFF80
FFFF80
FFFF80
FFFF80
FFFF80
ENDCHAR
STARTCHAR numbersign
ENCODING 35
SWIDTH 750 0
DWIDTH 18 0
BBX 17 17 0 0
BITMAP
FFFF80
FFFF80
FFFF80
FFFF80
FFFF80
FDBF80
FDBF80
F80F80
FDBF80
FDBF80
F80F80
FDBF80
FFFF80
FFFF80
FFFF80
FFFF80
FFFF80
ENDCHAR
STARTCHAR dollar
ENCODING 36
SWIDTH 750 0
DWIDTH 18 0
BBX 17 17 0 0
BITMAP
FFFF80
FFFF80
FFFF80
FFFF80
FF7F80
F80F80
FBFF80
FBFF80
F80F80
FFEF80
FFEF80
F80F80
FF7F80
FF7F80
FFFF80
FFFF80
FFFF80
ENDCHAR
STARTCHAR percent
ENCODING 37
SWIDTH 750 0
DWIDTH 18 0
BBX 17 17 0 0
BITMAP
FFFF80
FFFF80
FFFF80
FFFF80
E1F780
EDEF80
EDFF80
E1BF80
FF7F80
FFFF80
FD8780
FBB780
FFB780
EF8780
FFFF80
FFFF80
FFFF80
ENDCHAR
STARTCHAR ampersand
ENCODING 38
SWIDTH 750 0
DWIDTH 18 0
BBX 17 17 0 0
BITMAP
FFFF80
FFFF80
FFFF80
FFFF80
FFFF80
F87F80
FB7F80
FB7F80
FC6F80
FFFF80
FBBF80
F86F80
FFFF80
FFFF80
FFFF80
FFFF80
FFFF80
ENDCHAR
STARTCHAR quotesingle
ENCODING 39
SWIDTH 750 0
DWIDTH 18 0
BBX 17 17 0 0
BITMAP
FFFF80
FFFF80
FFFF80
FFFF80
FFFF80
FF7F80
FF7F80
FF7F80
FF7F80
FFFF80
FFFF80
FFFF80
FFFF80
FFFF80
FFFF80
FFFF80
FFFF80
ENDCHAR
STARTCHAR parenleft
ENCODING 40
SWIDTH 750 0
DWIDTH 18 0
BBX 17 17 0 0
BITMAP
FFFF80
FFFF80
FFFF80
FFFF80
FFFF80
FF3F80
FFFF80
FDFF80
FDFF80
FDFF80
FDFF80
FF3F80
FFFF80
FFFF80
FFFF80
FFFF80
FFFF80
ENDCHAR
STARTCHAR parenright
ENCODING 41
SWIDTH 750 0
DWIDTH 18 0
BBX 17 17 0 0
BITMAP
FFFF80
FFFF80
FFFF80
FFFF80
FFFF80
FC7F80
FFFF80
FFBF80
FFBF80
FFBF80
FFBF80
FC7F80
FFFF80
FFFF80
FFFF80
FFFF80
FFFF80
ENDCHAR
STARTCHAR asterisk
ENCODING 42
SWIDTH 750 0
DWIDTH 18 0
BBX 17 17 0 0
BITMAP
FFFF80
FFFF80
FFFF80
FFFF80
FFFF80
FF7F80
FF7F80
FB6F80
FC3F80
FF7F80
FB6F80
FF7F80
FFFF80
FFFF80
FFFF80
FFFF80
FFFF80
ENDCHAR
STARTCHAR plus
ENCODING 43
SWIDTH 750 0
DWIDTH 18 0
BBX 17 17 0 0
BITMAP
FFFF80
FFFF80
FFFF80
FFFF80
FFFF80
FF7F80
FF7F80
FF7F80
F80F80
FF7F80
FF7F80
FF7F80
FFFF80
FFFF80
FFFF80
FFFF80
FFFF80
ENDCHAR
STARTCHAR comma
ENCODING 44
SWIDTH 750 0
DWIDTH 18 0
BBX 17 17 0 0
BITMAP
FFFF80
FFFF80
FFFF80
FFFF80
FFFF80
FFFF80
FFFF80
FFFF80
FFFF80
FFFF80
FFFF80
FF7F80
FF7F80
FF7F80
FFFF80
FFFF80
FFFF80
ENDCHAR
STARTCHAR hyphen
ENCODING 45
SWIDTH 750 0
DWIDTH 18 0
BBX 17 17 0 0
BITMAP
FFFF80
FFFF80
FFFF80
FFFF80
FFFF80
FFFF80
FFFF80
FFFF80
FC3F80
FFFF80
FFFF80
FFFF80
FFFF80
FFFF80
FFFF80
FFFF80
FFFF80
ENDCHAR
STARTCHAR period
ENCODING 46
SWIDTH 750 0
DWIDTH 18 0
BBX 17 17 0 0
BITMAP
FFFF80
FFFF80
FFFF80
FFFF80
FFFF80
FFFF80
FFFF80
FFFF80
FFFF80
FFFF80
FFFF80
FBFF80
FFFF80
FFFF80
FFFF80
FFFF80
FFFF80
ENDCHAR
STARTCHAR slash
ENCODING 47
SWIDTH 750 0
DWIDTH 18 0
BBX 17 17 0 0
BITMAP
FFFF80
FFFF80
FFFF80
FFFF80
FFFF80
FFEF80
FFFF80
FFBF80
FF7F80
FFFF80
FDFF80
FBFF80
FFFF80
FFFF80
FFFF80
FFFF80
FFFF80
ENDCHAR
STARTCHAR zero
ENCODING 48
SWIDTH 750 0
DWIDTH 18 0
BBX 17 17 0 0
BITMAP
FFFF80
FFFF80
FFFF80
FFFF80
FFFF80
F80F80
FB8F80
FB8F80
FB6F80
FBEF80
F9EF80
F80F80
FFFF80
FFFF80
FFFF80
FFFF80
FFFF80
ENDCHAR
STARTCHAR one
ENCODING 49
SWIDTH 750 0
DWIDTH 18 0
BBX 17 17 0 0
BITMAP
FFFF80
FFFF80
FFFF80
FFFF80
FFFF80
F87F80
FF7F80
FF7F80
FF7F80
FF7F80
FF7F80
F80F80
FFFF80
FFFF80
FFFF80
FFFF80
FFFF80
ENDCHAR
STARTCHAR two
ENCODING 50
SWIDTH 750 0
DWIDTH 18 0
BBX 17 17 0 0
BITMAP
FFFF80
FFFF80
FFFF80
FFFF80
FFFF80
F80F80
FFEF80
FFEF80
F80F80
FBFF80
FBFF80
F80F80
FFFF80
FFFF80
FFFF80
FFFF80
FFFF80
ENDCHAR
STARTCHAR three
ENCODING 51
SWIDTH 750 0
DWIDTH 18 0
BBX 17 17 0 0
BITMAP
FFFF80
FFFF80
FFFF80
FFFF80
FFFF80
F80F80
FFEF80
FFEF80
FC3F80
FFFF80
FFEF80
F80F80
FFFF80
FFFF80
FFFF80
FFFF80
FFFF80
ENDCHAR
STARTCHAR four
ENCODING 52
SWIDTH 750 0
DWIDTH 18 0
BBX 17 17 0 0
BITMAP
FFFF80
FFFF80
FFFF80
FFFF80
FFFF80
FBEF80
FBEF80
FBEF80
F80F80
FFEF80
FFEF80
FFEF80
FFFF80
FFFF80
FFFF80
FFFF80
FFFF80
ENDCHAR
STARTCHAR five
ENCODING 53
SWIDTH 750 0
DWIDTH 18 0
BBX 17 17 0 0
BITMAP
FFFF80
FFFF80
FFFF80
FFFF80
FFFF80
F80F80
FBFF80
FBFF80
F80F80
FFEF80
FFEF80
F80F80
FFFF80
FFFF80
FFFF80
FFFF80
FFFF80
ENDCHAR
STARTCHAR six
ENCODING 54
SWIDTH 750 0
DWIDTH 18 0
BBX 17 17 0 0
BITMAP
FFFF80
FFFF80
FFFF80
FFFF80
FFFF80
F80F80
FBFF80
FBFF80
F80F80
FBEF80
FBEF80
F80F80
FFFF80
FFFF80
FFFF80
FFFF80
FFFF80
ENDCHAR
STARTCHAR seven
ENCODING 55
SWIDTH 750 0
DWIDTH 18 0
BBX 17 17 0 0
BITMAP
FFFF80
FFFF80
FFFF80
FFFF80
FFFF80
F80F80
FBEF80
FBEF80
FFEF80
FFEF80
FFEF80
FFEF80
FFFF80
FFFF80
FFFF80
FFFF80
FFFF80
ENDCHAR
STARTCHAR eight
ENCODING 56
SWIDTH 750 0
DWIDTH 18 0
BBX 17 17 0 0
BITMAP
FFFF80
FFFF80
FFFF80
FFFF80
FFFF80
F80F80
FBEF80
FBEF80
F80F80
FBEF80
FBEF80
F80F80
FFFF80
FFFF80
FFFF80
FFFF80
FFFF80
ENDCHAR
STARTCHAR nine
ENCODING 57
SWIDTH 750 0
DWIDTH 18 0
BBX 17 17 0 0
BITMAP
FFFF80
FFFF80
FFFF80
FFFF80
FFFF80
F80F80
FBEF80
FBEF80
F80F80
FFEF80
FFEF80
F80F80
FFFF80
FFFF80
FFFF80
FFFF80
FFFF80
ENDCHAR
STARTCHAR colon
ENCODING 58
SWIDTH 750 0
DWIDTH 18 0
BBX 17 17 0 0
BITMAP
FFFF80
FFFF80
FFFF80
FFFF80
FFFF80
FFFF80
FFFF80
FF7F80
FFFF80
FFFF80
FF7F80
FFFF80
FFFF80
FFFF80
FFFF80
FFFF80
FFFF80
ENDCHAR
STARTCHAR semicolon
ENCODING 59
SWIDTH 750 0
DWIDTH 18 0
BBX 17 17 0 0
BITMAP
FFFF80
FFFF80
FFFF80
FFFF80
FFFF80
FFFF80
FFFF80
FF7F80
FFFF80
FFFF80
FF7F80
FF7F80
FFFF80
FFFF80
FFFF80
FFFF80
FFFF80
ENDCHAR
STARTCHAR less
ENCODING 60
SWIDTH 750 0
DWIDTH 18 0
BBX 17 17 0 0
BITMAP
FFFF80
FFFF80
FFFF80
FFFF80
FFFF80
FFBF80
FFFF80
FF7F80
FDFF80
FFFF80
FF7F80
FFBF80
FFFF80
FFFF80
FFFF80
FFFF80
FFFF80
ENDCHAR
STARTCHAR equal
ENCODING 61
SWIDTH 750 0
DWIDTH 18 0
BBX 17 17 0 0
BITMAP
FFFF80
FFFF80
FFFF80
FFFF80
FFFF80
FFFF80
FFFF80
F80F80
FFFF80
FFFF80
F80F80
FFFF80
FFFF80
FFFF80
FFFF80
FFFF80
FFFF80
ENDCHAR
STARTCHAR greater
ENCODING 62
SWIDTH 750 0
DWIDTH 18 0
BBX 17 17 0 0
BITMAP
FFFF80
FFFF80
FFFF80
FFFF80
FFFF80
FDFF80
FFFF80
FF7F80
FFBF80
FFFF80
FF7F80
FDFF80
FFFF80
FFFF80
FFFF80
FFFF80
FFFF80
ENDCHAR
STARTCHAR question
ENCODING 63
SWIDTH 750 0
DWIDTH 18 0
BBX 17 17 0 0
BITMAP
FFFF80
FFFF80
FFFF80
FFFF80
FFFF80
F80F80
FFEF80
FFEF80
FF0F80
FFFF80
FFFF80
FF7F80
FFFF80
FFFF80
FFFF80
FFFF80
FFFF80
ENDCHAR
STARTCHAR at
ENCODING 64
SWIDTH 750 0
DWIDTH 18 0
BBX 17 17 0 0
BITMAP
FFFF80
FFFF80
FFFF80
FFFF80
FFFF80
FC0F80
FFEF80
FBEF80
FBEF80
FBFF80
FBBF80
F80F80
FFFF80
FFFF80
FFFF80
FFFF80
FFFF80
ENDCHAR
STARTCHAR A
ENCODING 65
SWIDTH 750 0
DWIDTH 18 0
BBX 17 17 0 0
BITMAP
FFFF80
FFFF80
FFFF80
FFFF80
FFFF80
F80F80
FBEF80
FBEF80
F80F80
FBEF80
FBEF80
FBEF80
FFFF80
FFFF80
FFFF80
FFFF80
FFFF80
ENDCHAR
STARTCHAR B
ENCODING 66
SWIDTH 750 0
DWIDTH 18 0
BBX 17 17 0 0
BITMAP
FFFF80
FFFF80
FFFF80
FFFF80
FFFF80
F80F80
FBEF80
FBEF80
F83F80
FBFF80
FBEF80
F80F80
FFFF80
FFFF80
FFFF80
FFFF80
FFFF80
ENDCHAR
STARTCHAR C
ENCODING 67
SWIDTH 750 0
DWIDTH 18 0
BBX 17 17 0 0
BITMAP
FFFF80
FFFF80
FFFF80
FFFF80
FFFF80
F80F80
FBFF80
FBFF80
FBFF80
FBFF80
FBFF80
F80F80
FFFF80
FFFF80
FFFF80
FFFF80
FFFF80
ENDCHAR
STARTCHAR D
ENCODING 68
SWIDTH 750 0
DWIDTH 18 0
BBX 17 17 0 0
BITMAP
FFFF80
FFFF80
FFFF80
FFFF80
FFFF80
F83F80
FBFF80
FBEF80
FBEF80
FBEF80
FBEF80
F83F80
FFFF80
FFFF80
FFFF80
FFFF80
FFFF80
ENDCHAR
STARTCHAR E
ENCODING 69
SWIDTH 750 0
DWIDTH 18 0
BBX 17 17 0 0
BITMAP
FFFF80
FFFF80
FFFF80
FFFF80
FFFF80
F80F80
FBFF80
FBFF80
F83F80
FBFF80
FBFF80
F80F80
FFFF80
FFFF80
FFFF80
FFFF80
FFFF80
ENDCHAR
STARTCHAR F
ENCODING 70
SWIDTH 750 0
DWIDTH 18 0
BBX 17 17 0 0
BITMAP
FFFF80
FFFF80
FFFF80
FFFF80
FFFF80
F80F80
FBFF80
FBFF80
F83F80
FBFF80
FBFF80
FBFF80
FFFF80
FFFF80
FFFF80
FFFF80
FFFF80
ENDCHAR
STARTCHAR G
ENCODING 71
SWIDTH 750 0
DWIDTH 18 0
BBX 17 17 0 0
BITMAP
FFFF80
FFFF80
FFFF80
FFFF80
FFFF80
F80F80
FBFF80
FBFF80
FB0F80
FBEF80
FBEF80
F80F80
FFFF80
FFFF80
FFFF80
FFFF80
FFFF80
ENDCHAR
STARTCHAR H
ENCODING 72
SWIDTH 750 0
DWIDTH 18 0
BBX 17 17 0 0
BITMAP
FFFF80
FFFF80
FFFF80
FFFF80
FFFF80
FBEF80
FBEF80
FBEF80
F80F80
FBEF80
FBEF80
FBEF80
FFFF80
FFFF80
FFFF80
FFFF80
FFFF80
ENDCHAR
STARTCHAR I
ENCODING 73
SWIDTH 750 0
DWIDTH 18 0
BBX 17 17 0 0
BITMAP
FFFF80
FFFF80
FFFF80
FFFF80
FFFF80
F80F80
FF7F80
FF7F80
FF7F80
FF7F80
FF7F80
F80F80
FFFF80
FFFF80
FFFF80
FFFF80
FFFF80
ENDCHAR
STARTCHAR J
ENCODING 74
SWIDTH 750 0
DWIDTH 18 0
BBX 17 17 0 0
BITMAP
FFFF80
FFFF80
FFFF80
FFFF80
FFFF80
FF0F80
FFEF80
FFEF80
FFEF80
FFEF80
FBEF80
F80F80
FFFF80
FFFF80
FFFF80
FFFF80
FFFF80
ENDCHAR
STARTCHAR K
ENCODING 75
SWIDTH 750 0
DWIDTH 18 0
BBX 17 17 0 0
BITMAP
FFFF80
FFFF80
FFFF80
FFFF80
FFFF80
FBEF80
FBFF80
FBBF80
F87F80
FBFF80
FBBF80
FBEF80
FFFF80
FFFF80
FFFF80
FFFF80
FFFF80
ENDCHAR
STARTCHAR L
ENCODING 76
SWIDTH 750 0
DWIDTH 18 0
BBX 17 17 0 0
BITMAP
FFFF80
FFFF80
FFFF80
FFFF80
FFFF80
FBFF80
FBFF80
FBFF80
FBFF80
FBFF80
FBFF80
F80F80
FFFF80
FFFF80
FFFF80
FFFF80
FFFF80
ENDCHAR
STARTCHAR M
ENCODING 77
SWIDTH 750 0
DWIDTH 18 0
BBX 17 17 0 0
BITMAP
FFFF80
FFFF80
FFFF80
FFFF80
FFFF80
FBEF80
FBEF80
F98F80
FB6F80
FBEF80
FBEF80
FBEF80
FFFF80
FFFF80
FFFF80
FFFF80
FFFF80
ENDCHAR
STARTCHAR N
ENCODING 78
SWIDTH 750 0
DWIDTH 18 0
BBX 17 17 0 0
BITMAP
FFFF80
FFFF80
FFFF80
FFFF80
FFFF80
FBEF80
FBEF80
F9EF80
FB6F80
FBEF80
FB8F80
FBEF80
FFFF80
FFFF80
FFFF80
FFFF80
FFFF80
ENDCHAR
STARTCHAR O
ENCODING 79
SWIDTH 750 0
DWIDTH 18 0
BBX 17 17 0 0
BITMAP
FFFF80
FFFF80
FFFF80
FFFF80
FFFF80
F80F80
FBEF80
FBEF80
FBEF80
FBEF80
FBEF80
F80F80
FFFF80
FFFF80
FFFF80
FFFF80
FFFF80
ENDCHAR
STARTCHAR P
ENCODING 80
SWIDTH 750 0
DWIDTH 18 0
BBX 17 17 0 0
BITMAP
FFFF80
FFFF80
FFFF80
FFFF80
FFFF80
F80F80
FBEF80
FBEF80
F80F80
FBFF80
FBFF80
FBFF80
FFFF80
FFFF80
FFFF80
FFFF80
FFFF80
ENDCHAR
STARTCHAR Q
ENCODING 81
SWIDTH 750 0
DWIDTH 18 0
BBX 17 17 0 0
BITMAP
FFFF80
FFFF80
FFFF80
FFFF80
FFFF80
F80F80
FBEF80
FBEF80
FBEF80
FBEF80
FB6F80
F80F80
FF7F80
FF7F80
FFFF80
FFFF80
FFFF80
ENDCHAR
STARTCHAR R
ENCODING 82
SWIDTH 750 0
DWIDTH 18 0
BBX 17 17 0 0
BITMAP
FFFF80
FFFF80
FFFF80
FFFF80
FFFF80
F80F80
FBEF80
FBEF80
F83F80
FBFF80
FBEF80
FBEF80
FFFF80
FFFF80
FFFF80
FFFF80
FFFF80
ENDCHAR
STARTCHAR S
ENCODING 83
SWIDTH 750 0
DWIDTH 18 0
BBX 17 17 0 0
BITMAP
FFFF80
FFFF80
FFFF80
FFFF80
FFFF80
F80F80
FBFF80
FBFF80
F80F80
FFEF80
FFEF80
F80F80
FFFF80
FFFF80
FFFF80
FFFF80
FFFF80
ENDCHAR
STARTCHAR T
ENCODING 84
SWIDTH 750 0
DWIDTH 18 0
BBX 17 17 0 0
BITMAP
FFFF80
FFFF80
FFFF80
FFFF80
FFFF80
F80F80
FF7F80
FF7F80
FF7F80
FF7F80
FF7F80
FF7F80
FFFF80
FFFF80
FFFF80
FFFF80
FFFF80
ENDCHAR
STARTCHAR U
ENCODING 85
SWIDTH 750 0
DWIDTH 18 0
BBX 17 17 0 0
BITMAP
FFFF80
FFFF80
FFFF80
FFFF80
FFFF80
FBEF80
FBEF80
FBEF80
FBEF80
FBEF80
FBEF80
F80F80
FFFF80
FFFF80
FFFF80
FFFF80
FFFF80
ENDCHAR
STARTCHAR V
ENCODING 86
SWIDTH 750 0
DWIDTH 18 0
BBX 17 17 0 0
BITMAP
FFFF80
FFFF80
FFFF80
FFFF80
FFFF80
FBEF80
FBEF80
FBEF80
FBEF80
FFFF80
FDBF80
FF7F80
FFFF80
FFFF80
FFFF80
FFFF80
FFFF80
ENDCHAR
STARTCHAR W
ENCODING 87
SWIDTH 750 0
DWIDTH 18 0
BBX 17 17 0 0
BITMAP
FFFF80
FFFF80
FFFF80
FFFF80
FFFF80
FBEF80
FBEF80
FB6F80
FB6F80
FB6F80
FB6F80
F98F80
FFFF80
FFFF80
FFFF80
FFFF80
FFFF80
ENDCHAR
STARTCHAR X
ENCODING 88
SWIDTH 750 0
DWIDTH 18 0
BBX 17 17 0 0
BITMAP
FFFF80
FFFF80
FFFF80
FFFF80
FFFF80
FBEF80
FFFF80
FDBF80
FF7F80
FFFF80
FDBF80
FBEF80
FFFF80
FFFF80
FFFF80
FFFF80
FFFF80
ENDCHAR
STARTCHAR Y
ENCODING 89
SWIDTH 750 0
DWIDTH 18 0
BBX 17 17 0 0
BITMAP
FFFF80
FFFF80
FFFF80
FFFF80
FFFF80
FBEF80
FFFF80
FDBF80
FF7F80
FF7F80
FF7F80
FF7F80
FFFF80
FFFF80
FFFF80
FFFF80
FFFF80
ENDCHAR
STARTCHAR Z
ENCODING 90
SWIDTH 750 0
DWIDTH 18 0
BBX 17 17 0 0
BITMAP
FFFF80
FFFF80
FFFF80
FFFF80
FFFF80
F80F80
FFBF80
FFBF80
FF7F80
FFFF80
FDFF80
F80F80
FFFF80
FFFF80
FFFF80
FFFF80
FFFF80
ENDCHAR
STARTCHAR bracketleft
ENCODING 91
SWIDTH 750 0
DWIDTH 18 0
BBX 17 17 0 0
BITMAP
FFFF80
FFFF80
FFFF80
FFFF80
FFFF80
FC3F80
FDFF80
FDFF80
FDFF80
FDFF80
FDFF80
FC3F80
FFFF80
FFFF80
FFFF80
FFFF80
FFFF80
ENDCHAR
STARTCHAR backslash
ENCODING 92
SWIDTH 750 0
DWIDTH 18 0
BBX 17 17 0 0
BITMAP
FFFF80
FFFF80
FFFF80
FFFF80
FFFF80
FBFF80
FFFF80
FDFF80
FF7F80
FFFF80
FFBF80
FFEF80
FFFF80
FFFF80
FFFF80
FFFF80
FFFF80
ENDCHAR
STARTCHAR bracketright
ENCODING 93
SWIDTH 750 0
DWIDTH 18 0
BBX 17 17 0 0
BITMAP
FFFF80
FFFF80
FFFF80
FFFF80
FFFF80
FC3F80
FFBF80
FFBF80
FFBF80
FFBF80
FFBF80
FC3F80
FFFF80
FFFF80
FFFF80
FFFF80
FFFF80
ENDCHAR
STARTCHAR asciicircum
ENCODING 94
SWIDTH 750 0
DWIDTH 18 0
BBX 17 17 0 0
BITMAP
FFFF80
FFFF80
FFFF80
FFFF80
FFFF80
FF7F80
FFFF80
FDBF80
FFFF80
FFFF80
FFFF80
FFFF80
FFFF80
FFFF80
FFFF80
FFFF80
FFFF80
ENDCHAR
STARTCHAR underscore
ENCODING 95
SWIDTH 750 0
DWIDTH 18 0
BBX 17 17 0 0
BITMAP
FFFF80
FFFF80
FFFF80
FFFF80
FFFF80
FFFF80
FFFF80
FFFF80
FFFF80
FFFF80
FFFF80
FFFF80
FFFF80
FFFF80
FFFF80
FFFF80
FFFF80
ENDCHAR
STARTCHAR grave
ENCODING 96
SWIDTH 750 0
DWIDTH 18 0
BBX 17 17 0 0
BITMAP
FFFF80
FFFF80
FFFF80
FFFF80
FFFF80
FDFF80
FFFF80
FF7F80
FFFF80
FFFF80
FFFF80
FFFF80
FFFF80
FFFF80
FFFF80
FFFF80
FFFF80
ENDCHAR
STARTCHAR a
ENCODING 97
SWIDTH 750 0
DWIDTH 18 0
BBX 17 17 0 0
BITMAP
FFFF80
FFFF80
FFFF80
FFFF80
FFFF80
F80F80
FFEF80
FFEF80
F80F80
FBEF80
FBEF80
F80F80
FFFF80
FFFF80
FFFF80
FFFF80
FFFF80
ENDCHAR
STARTCHAR b
ENCODING 98
SWIDTH 750 0
DWIDTH 18 0
BBX 17 17 0 0
BITMAP
FFFF80
FFFF80
FFFF80
FFFF80
FFFF80
FBFF80
FBFF80
F80F80
FBEF80
FBEF80
FBEF80
F80F80
FFFF80
FFFF80
FFFF80
FFFF80
FFFF80
ENDCHAR
STARTCHAR c
ENCODING 99
SWIDTH 750 0
DWIDTH 18 0
BBX 17 17 0 0
BITMAP
FFFF80
FFFF80
FFFF80
FFFF80
FFFF80
F80F80
FBFF80
FBFF80
FBFF80
FBFF80
FBFF80
F80F80
FFFF80
FFFF80
FFFF80
FFFF80
FFFF80
ENDCHAR
STARTCHAR d
ENCODING 100
SWIDTH 750 0
DWIDTH 18 0
BBX 17 17 0 0
BITMAP
FFFF80
FFFF80
FFFF80
FFFF80
FFFF80
FFEF80
FFEF80
F80F80
FBEF80
FBEF80
FBEF80
F80F80
FFFF80
FFFF80
FFFF80
FFFF80
FFFF80
ENDCHAR
STARTCHAR e
ENCODING 101
SWIDTH 750 0
DWIDTH 18 0
BBX 17 17 0 0
BITMAP
FFFF80
FFFF80
FFFF80
FFFF80
FFFF80
F80F80
FBEF80
FBEF80
F80F80
FBFF80
FBFF80
F80F80
FFFF80
FFFF80
FFFF80
FFFF80
FFFF80
ENDCHAR
STARTCHAR f
ENCODING 102
SWIDTH 750 0
DWIDTH 18 0
BBX 17 17 0 0
BITMAP
FFFF80
FFFF80
FFFF80
FFFF80
FFFF80
FC0F80
FDFF80
FDFF80
F80F80
FDFF80
FDFF80
FDFF80
FFFF80
FFFF80
FFFF80
FFFF80
FFFF80
ENDCHAR
STARTCHAR g
ENCODING 103
SWIDTH 750 0
DWIDTH 18 0
BBX 17 17 0 0
BITMAP
FFFF80
FFFF80
FFFF80
FFFF80
FFFF80
F80F80
FBEF80
FBEF80
F80F80
FFEF80
FFEF80
F80F80
FFFF80
FFFF80
FFFF80
FFFF80
FFFF80
ENDCHAR
STARTCHAR h
ENCODING 104
SWIDTH 750 0
DWIDTH 18 0
BBX 17 17 0 0
BITMAP
FFFF80
FFFF80
FFFF80
FFFF80
FFFF80
FBFF80
FBFF80
F80F80
FBEF80
FBEF80
FBEF80
FBEF80
FFFF80
FFFF80
FFFF80
FFFF80
FFFF80
ENDCHAR
STARTCHAR i
ENCODING 105
SWIDTH 750 0
DWIDTH 18 0
BBX 17 17 0 0
BITMAP
FFFF80
FFFF80
FFFF80
FFFF80
FFFF80
FF7F80
FFFF80
FFFF80
FF7F80
FF7F80
FF7F80
FF7F80
FFFF80
FFFF80
FFFF80
FFFF80
FFFF80
ENDCHAR
STARTCHAR j
ENCODING 106
SWIDTH 750 0
DWIDTH 18 0
BBX 17 17 0 0
BITMAP
FFFF80
FFFF80
FFFF80
FFFF80
FFFF80
FFEF80
FFFF80
FFFF80
FFEF80
FFEF80
FBEF80
F80F80
FFFF80
FFFF80
FFFF80
FFFF80
FFFF80
ENDCHAR
STARTCHAR k
ENCODING 107
SWIDTH 750 0
DWIDTH 18 0
BBX 17 17 0 0
BITMAP
FFFF80
FFFF80
FFFF80
FFFF80
FFFF80
FBFF80
FBFF80
FBFF80
FB8F80
FBFF80
F87F80
FB8F80
FFFF80
FFFF80
FFFF80
FFFF80
FFFF80
ENDCHAR
STARTCHAR l
ENCODING 108
SWIDTH 750 0
DWIDTH 18 0
BBX 17 17 0 0
BITMAP
FFFF80
FFFF80
FFFF80
FFFF80
FFFF80
FF7F80
FF7F80
FF7F80
FF7F80
FF7F80
FF7F80
FF3F80
FFFF80
FFFF80
FFFF80
FFFF80
FFFF80
ENDCHAR
STARTCHAR m
ENCODING 109
SWIDTH 750 0
DWIDTH 18 0
BBX 17 17 0 0
BITMAP
FFFF80
FFFF80
FFFF80
FFFF80
FFFF80
F9BF80
FBFF80
FB6F80
FB6F80
FB6F80
FB6F80
FB6F80
FFFF80
FFFF80
FFFF80
FFFF80
FFFF80
ENDCHAR
STARTCHAR n
ENCODING 110
SWIDTH 750 0
DWIDTH 18 0
BBX 17 17 0 0
BITMAP
FFFF80
FFFF80
FFFF80
FFFF80
FFFF80
F83F80
FBFF80
FBEF80
FBEF80
FBEF80
FBEF80
FBEF80
FFFF80
FFFF80
FFFF80
FFFF80
FFFF80
ENDCHAR
STARTCHAR o
ENCODING 111
SWIDTH 750 0
DWIDTH 18 0
BBX 17 17 0 0
BITMAP
FFFF80
FFFF80
FFFF80
FFFF80
FFFF80
F80F80
FBEF80
FBEF80
FBEF80
FBEF80
FBEF80
F80F80
FFFF80
FFFF80
FFFF80
FFFF80
FFFF80
ENDCHAR
STARTCHAR p
ENCODING 112
SWIDTH 750 0
DWIDTH 18 0
BBX 17 17 0 0
BITMAP
FFFF80
FFFF80
FFFF80
FFFF80
FFFF80
F80F80
FBEF80
FBEF80
FBEF80
FBEF80
F80F80
FBFF80
FFFF80
FFFF80
FFFF80
FFFF80
FFFF80
ENDCHAR
STARTCHAR q
ENCODING 113
SWIDTH 750 0
DWIDTH 18 0
BBX 17 17 0 0
BITMAP
FFFF80
FFFF80
FFFF80
FFFF80
FFFF80
F80F80
FBEF80
FBEF80
FBEF80
FBEF80
F80F80
FFEF80
FFFF80
FFFF80
FFFF80
FFFF80
FFFF80
ENDCHAR
STARTCHAR r
ENCODING 114
SWIDTH 750 0
DWIDTH 18 0
BBX 17 17 0 0
BITMAP
FFFF80
FFFF80
FFFF80
FFFF80
FFFF80
F80F80
FBEF80
FBEF80
FBFF80
FBFF80
FBFF80
FBFF80
FFFF80
FFFF80
FFFF80
FFFF80
FFFF80
ENDCHAR
STARTCHAR s
ENCODING 115
SWIDTH 750 0
DWIDTH 18 0
BBX 17 17 0 0
BITMAP
FFFF80
FFFF80
FFFF80
FFFF80
FFFF80
F80F80
FBFF80
FBFF80
F80F80
FFEF80
FFEF80
F80F80
FFFF80
FFFF80
FFFF80
FFFF80
FFFF80
ENDCHAR
STARTCHAR t
ENCODING 116
SWIDTH 750 0
DWIDTH 18 0
BBX 17 17 0 0
BITMAP
FFFF80
FFFF80
FFFF80
FFFF80
FFFF80
FDFF80
FDFF80
F80F80
FDFF80
FDFF80
FDFF80
FC0F80
FFFF80
FFFF80
FFFF80
FFFF80
FFFF80
ENDCHAR
STARTCHAR u
ENCODING 117
SWIDTH 750 0
DWIDTH 18 0
BBX 17 17 0 0
BITMAP
FFFF80
FFFF80
FFFF80
FFFF80
FFFF80
FBEF80
FBEF80
FBEF80
FBEF80
FBEF80
F9EF80
FB0F80
FFFF80
FFFF80
FFFF80
FFFF80
FFFF80
ENDCHAR
STARTCHAR v
ENCODING 118
SWIDTH 750 0
DWIDTH 18 0
BBX 17 17 0 0
BITMAP
FFFF80
FFFF80
FFFF80
FFFF80
FFFF80
FBEF80
FBEF80
FBEF80
FBEF80
FFFF80
FDBF80
FF7F80
FFFF80
FFFF80
FFFF80
FFFF80
FFFF80
ENDCHAR
STARTCHAR w
ENCODING 119
SWIDTH 750 0
DWIDTH 18 0
BBX 17 17 0 0
BITMAP
FFFF80
FFFF80
FFFF80
FFFF80
FFFF80
FB6F80
FB6F80
FB6F80
FB6F80
FB6F80
FB6F80
F98F80
FFFF80
FFFF80
FFFF80
FFFF80
FFFF80
ENDCHAR
STARTCHAR x
ENCODING 120
SWIDTH 750 0
DWIDTH 18 0
BBX 17 17 0 0
BITMAP
FFFF80
FFFF80
FFFF80
FFFF80
FFFF80
FBEF80
FFFF80
FDBF80
FF7F80
FFFF80
FDBF80
FBEF80
FFFF80
FFFF80
FFFF80
FFFF80
FFFF80
ENDCHAR
STARTCHAR y
ENCODING 121
SWIDTH 750 0
DWIDTH 18 0
BBX 17 17 0 0
BITMAP
FFFF80
FFFF80
FFFF80
FFFF80
FFFF80
FBEF80
FBEF80
FBEF80
F80F80
FFEF80
FFEF80
F80F80
FFFF80
FFFF80
FFFF80
FFFF80
FFFF80
ENDCHAR
STARTCHAR z
ENCODING 122
SWIDTH 750 0
DWIDTH 18 0
BBX 17 17 0 0
BITMAP
FFFF80
FFFF80
FFFF80
FFFF80
FFFF80
F80F80
FFBF80
FFBF80
FF7F80
FFFF80
FDFF80
F80F80
FFFF80
FFFF80
FFFF80
FFFF80
FFFF80
ENDCHAR
STARTCHAR braceleft
ENCODING 123
SWIDTH 750 0
DWIDTH 18 0
BBX 17 17 0 0
BITMAP
FFFF80
FFFF80
FFFF80
FFFF80
FFFF80
FF3F80
FF7F80
FF7F80
FDFF80
FFFF80
FF7F80
FF3F80
FFFF80
FFFF80
FFFF80
FFFF80
FFFF80
ENDCHAR
STARTCHAR bar
ENCODING 124
SWIDTH 750 0
DWIDTH 18 0
BBX 17 17 0 0
BITMAP
FFFF80
FFFF80
FFFF80
FFFF80
FFFF80
FF7F80
FF7F80
FF7F80
FF7F80
FF7F80
FF7F80
FF7F80
FFFF80
FFFF80
FFFF80
FFFF80
FFFF80
ENDCHAR
STARTCHAR braceright
ENCODING 125
SWIDTH 750 0
DWIDTH 18 0
BBX 17 17 0 0
BITMAP
FFFF80
FFFF80
FFFF80
FFFF80
FFFF80
FF3F80
FFBF80
FFBF80
FFEF80
FFFF80
FFBF80
FF3F80
FFFF80
FFFF80
FFFF80
FFFF80
FFFF80
ENDCHAR
STARTCHAR asciitilde
ENCODING 126
SWIDTH 750 0
DWIDTH 18 0
BBX 17 17 0 0
BITMAP
FFFF80
FFFF80
FFFF80
FFFF80
FFFF80
FDFF80
FFFF80
FB6F80
FFBF80
FFFF80
FFFF80
FFFF80
FFFF80
FFFF80
FFFF80
FFFF80
FFFF80
ENDCHAR
STARTCHAR uni00A0
ENCODING 160
SWIDTH 312 0
DWIDTH 8 0
BBX 1 1 0 0
BITMAP
00
ENDCHAR
STARTCHAR multiply
ENCODING 215
SWIDTH 750 0
DWIDTH 18 0
BBX 17 17 0 0
BITMAP
FFFF80
FFFF80
FFFF80
FFFF80
FFFF80
FBEF80
FFFF80
FDBF80
FF7F80
FFFF80
FDBF80
FBEF80
FFFF80
FFFF80
FFFF80
FFFF80
FFFF80
ENDCHAR
STARTCHAR divide
ENCODING 247
SWIDTH 750 0
DWIDTH 18 0
BBX 17 17 0 0
BITMAP
FFFF80
FFFF80
FFFF80
FFFF80
FFFF80
FF7F80
FFFF80
FFFF80
F80F80
FFFF80
FFFF80
FF7F80
FFFF80
FFFF80
FFFF80
FFFF80
FFFF80
ENDCHAR
STARTCHAR .notdef
ENCODING -1
SWIDTH 365 0
DWIDTH 9 0
BBX 7 16 1 0
BITMAP
FE
82
82
82
82
82
82
82
82
82
82
82
82
82
82
FE
ENDCHAR
STARTCHAR .null
ENCODING -1
SWIDTH 0 0
DWIDTH 0 0
BBX 1 1 0 0
BITMAP
00
ENDCHAR
STARTCHAR nonmarkingreturn
ENCODING -1
SWIDTH 333 0
DWIDTH 8 0
BBX 1 1 0 0
BITMAP
00
ENDCHAR
ENDFONT
